<?xml version="1.0" encoding="utf-8"?>
<!-- Generator: Adobe Illustrator 20.1.0, SVG Export Plug-In . SVG Version: 6.00 Build 0)  -->
<svg version="1.1" id="Layer_1" xmlns="http://www.w3.org/2000/svg" xmlns:xlink="http://www.w3.org/1999/xlink" x="0px" y="0px"
	 viewBox="0 0 56.1 232.8" style="enable-background:new 0 0 56.1 232.8;" xml:space="preserve">
<style type="text/css">
	.st0{fill:#de0c53;}
	.st1{fill:#FFFFFF;}
</style>
<g>
	<path class="st0" d="M28.1,59.5C12.9,59.5,0.5,46.3,0.5,30S12.9,0.5,28.1,0.5S55.6,13.7,55.6,30S43.2,59.5,28.1,59.5z"/>
	<path class="st1" d="M28.1,1C43,1,55.1,14,55.1,30S43,59,28.1,59S1,46,1,30S13.1,1,28.1,1 M28.1,0C12.6,0,0,13.4,0,30
		s12.6,30,28.1,30c15.5,0,28.1-13.4,28.1-30S43.6,0,28.1,0L28.1,0z"/>
</g>
<g>
	<path class="st0" d="M28.1,145.9c-15.2,0-27.6-13.2-27.6-29.5c0-16.3,12.4-29.5,27.6-29.5s27.6,13.2,27.6,29.5
		C55.6,132.7,43.2,145.9,28.1,145.9z"/>
	<path class="st1" d="M28.1,87.4c14.9,0,27.1,13,27.1,29c0,16-12.1,29-27.1,29S1,132.4,1,116.4C1,100.4,13.1,87.4,28.1,87.4
		 M28.1,86.4C12.6,86.4,0,99.8,0,116.4s12.6,30,28.1,30c15.5,0,28.1-13.4,28.1-30S43.6,86.4,28.1,86.4L28.1,86.4z"/>
</g>
<g>
	<path class="st0" d="M28.1,232.3c-15.2,0-27.6-13.2-27.6-29.5c0-16.3,12.4-29.5,27.6-29.5s27.6,13.2,27.6,29.5
		C55.6,219.1,43.2,232.3,28.1,232.3z"/>
	<path class="st1" d="M28.1,173.8c14.9,0,27.1,13,27.1,29s-12.1,29-27.1,29S1,218.8,1,202.8S13.1,173.8,28.1,173.8 M28.1,172.8
		c-15.5,0-28.1,13.4-28.1,30s12.6,30,28.1,30c15.5,0,28.1-13.4,28.1-30S43.6,172.8,28.1,172.8L28.1,172.8z"/>
</g>
</svg>
