<?xml version="1.0" encoding="utf-8"?>
<!-- Generator: Adobe Illustrator 20.1.0, SVG Export Plug-In . SVG Version: 6.00 Build 0)  -->
<svg version="1.1" id="Layer_1" xmlns="http://www.w3.org/2000/svg" xmlns:xlink="http://www.w3.org/1999/xlink" x="0px" y="0px"
	 viewBox="0 0 300 300" style="enable-background:new 0 0 300 300;" xml:space="preserve">
<style type="text/css">
	.st0{fill-rule:evenodd;clip-rule:evenodd;}
</style>
<g>
	<g>
		<path class="st0" d="M300,150C300,67.3,232.7,0,150,0S0,67.3,0,150c0,81.5,65.4,148.1,146.5,150v0c0,0,0.1,0,0.2,0
			c1.1,0,2.2,0,3.4,0c1.4,0,2.8,0,4.2-0.1c0.2,0,0.2,0.1,0.2,0.1v-0.1C235.1,297.6,300,231.2,300,150z M150,12
			c76.1,0,138,61.9,138,138c0,31.7-10.7,60.9-28.7,84.2c-1.9-5.4-5.4-14.8-11.3-28.6c-11-25.7-15.3-34.8-31.8-52.1
			c-5.8-6.1,9.5-8.4,7.9-32.6c-0.7-11.4-12.1-25.1-17.6-30.9c-5.9-6.2,28.4-13.8,11.5-36.2c-26.2-20.5-24.8,13.8-38.8-1.8
			c-10.3-11.5-22.5-12.4-28.7-12c-6.2-0.4-18.4,0.6-28.7,12c-14,15.6-12.6-18.7-38.8,1.8C66,76.2,100.3,83.8,94.4,90
			c-5.5,5.8-16.9,19.5-17.6,30.9c-1.6,24.2,13.8,26.5,7.9,32.6c-16.4,17.3-20.7,26.4-31.8,52.1c-6.2,14.5-9.8,24.1-11.6,29.4
			c-0.1-0.2-0.3-0.3-0.4-0.5c-18.1-23.4-29-52.7-29-84.5C12,73.9,73.9,12,150,12z"/>
	</g>
</g>
</svg>
