<?xml version="1.0" encoding="utf-8"?>
<!-- Generator: Adobe Illustrator 16.0.0, SVG Export Plug-In . SVG Version: 6.00 Build 0)  -->
<!DOCTYPE svg PUBLIC "-//W3C//DTD SVG 1.1//EN" "http://www.w3.org/Graphics/SVG/1.1/DTD/svg11.dtd">
<svg version="1.1" xmlns="http://www.w3.org/2000/svg" xmlns:xlink="http://www.w3.org/1999/xlink" x="0px" y="0px" width="500px"
	 height="500px" viewBox="0 0 500 500" enable-background="new 0 0 500 500" xml:space="preserve">
<g id="Layer_1">
	<g id="Layer_6">
	</g>
	<path fill="#e91e63" stroke="#000000" stroke-miterlimit="10" d="M252,41C128.84,41,29,140.84,29,264c0,123.159,99.84,223,223,223
		c123.159,0,223-99.841,223-223C475,140.84,375.159,41,252,41z M253,444c-99.412,0-180-80.589-180-180c0-99.412,80.588-180,180-180
		c99.411,0,180,80.588,180,180C433,363.411,352.411,444,253,444z"/>
	<g id="Layer_4">
		<text transform="matrix(1 0 0 1 68.5986 419.5928)" fill="#e91e63" font-family="'HelveticaNeueMedium'" font-size="391.8273">W</text>
	</g>
</g>
<g id="Layer_5" display="none">
	<path display="inline" fill="#e91e63" stroke="#000000" stroke-miterlimit="10" d="M253.999,41.502c-123.16,0-223,99.84-223,223
		c0,123.159,99.84,223,223,223c123.159,0,223-99.841,223-223C476.999,141.342,377.158,41.502,253.999,41.502z M254.999,444.502
		c-99.412,0-180-80.589-180-180c0-99.412,80.588-180,180-180c99.411,0,180,80.588,180,180
		C434.999,363.913,354.41,444.502,254.999,444.502z"/>
	
		<text transform="matrix(1 0 0 1 128.7378 418.2373)" display="inline" fill="#e91e63" stroke="#000000" stroke-miterlimit="10" font-family="'HelveticaNeueMedium'" font-size="414.7361">P</text>
</g>
<g id="Layer_7" display="none">
	<path display="inline" fill="#e91e63" stroke="#000000" stroke-miterlimit="10" d="M254,41.502c-123.16,0-223,99.84-223,223
		c0,123.159,99.84,223,223,223c123.159,0,223-99.841,223-223C477,141.342,377.159,41.502,254,41.502z M255,444.502
		c-99.412,0-180-80.589-180-180c0-99.412,80.588-180,180-180c99.411,0,180,80.588,180,180C435,363.913,354.411,444.502,255,444.502z
		"/>
	<g id="Layer_8" display="inline">
		
			<text transform="matrix(1 0 0 1 142.5903 396.8809)" fill="#e91e63" stroke="#000000" stroke-miterlimit="10" font-family="'HelveticaNeueMedium'" font-size="397.5229">L</text>
	</g>
</g>
</svg>
